<svg xmlns="http://www.w3.org/2000/svg" xmlns:xlink="http://www.w3.org/1999/xlink" width="100" height="100" viewBox="0 0 100 100"><rect width="100%" height="100%" fill="#DDDDDD"/><path d="M26.02 43.22L27.80 43.22L27.80 54.07L26.76 54.07Q26.52 54.07 26.36 53.99Q26.20 53.91 26.05 53.72L26.05 53.72L20.39 46.49Q20.43 46.99 20.43 47.41L20.43 47.41L20.43 54.07L18.65 54.07L18.65 43.22L19.71 43.22Q19.84 43.22 19.93 43.23Q20.03 43.25 20.10 43.28Q20.17 43.31 20.24 43.38Q20.30 43.44 20.39 43.55L20.39 43.55L26.07 50.81Q26.05 50.54 26.03 50.29Q26.02 50.03 26.02 49.82L26.02 49.82L26.02 43.22ZM33.32 46.25L33.32 46.25Q34.18 46.25 34.88 46.53Q35.58 46.81 36.08 47.32Q36.58 47.83 36.85 48.56Q37.12 49.30 37.12 50.21L37.12 50.21Q37.12 51.12 36.85 51.86Q36.58 52.59 36.08 53.11Q35.58 53.63 34.88 53.90Q34.18 54.18 33.32 54.18L33.32 54.18Q32.46 54.18 31.76 53.90Q31.05 53.63 30.55 53.11Q30.05 52.59 29.78 51.86Q29.51 51.12 29.51 50.21L29.51 50.21Q29.51 49.30 29.78 48.56Q30.05 47.83 30.55 47.32Q31.05 46.81 31.76 46.53Q32.46 46.25 33.32 46.25ZM33.32 52.76L33.32 52.76Q34.28 52.76 34.75 52.11Q35.21 51.47 35.21 50.22L35.21 50.22Q35.21 48.98 34.75 48.32Q34.28 47.67 33.32 47.67L33.32 47.67Q32.35 47.67 31.88 48.33Q31.41 48.98 31.41 50.22L31.41 50.22Q31.41 51.46 31.88 52.11Q32.35 52.76 33.32 52.76ZM44.50 43.22L44.50 54.07L42.47 54.07L42.47 43.22L44.50 43.22ZM48.48 54.07L46.63 54.07L46.63 46.37L47.76 46.37Q48.12 46.37 48.23 46.71L48.23 46.71L48.35 47.28Q48.56 47.06 48.78 46.87Q49.00 46.68 49.25 46.55Q49.50 46.41 49.79 46.33Q50.08 46.25 50.42 46.25L50.42 46.25Q51.15 46.25 51.62 46.65Q52.09 47.04 52.32 47.69L52.32 47.69Q52.50 47.31 52.77 47.04Q53.04 46.76 53.36 46.59Q53.69 46.42 54.05 46.34Q54.41 46.25 54.78 46.25L54.78 46.25Q55.42 46.25 55.91 46.45Q56.41 46.64 56.75 47.02Q57.08 47.39 57.26 47.93Q57.44 48.47 57.44 49.17L57.44 49.17L57.44 54.07L55.58 54.07L55.58 49.17Q55.58 48.44 55.26 48.06Q54.94 47.69 54.32 47.69L54.32 47.69Q54.03 47.69 53.79 47.79Q53.54 47.89 53.36 48.07Q53.18 48.26 53.07 48.53Q52.97 48.81 52.97 49.17L52.97 49.17L52.97 54.07L51.11 54.07L51.11 49.17Q51.11 48.40 50.80 48.05Q50.48 47.69 49.88 47.69L49.88 47.69Q49.48 47.69 49.13 47.89Q48.78 48.09 48.48 48.44L48.48 48.44L48.48 54.07ZM63.26 52.08L63.26 50.78Q62.45 50.82 61.91 50.92Q61.36 51.02 61.03 51.18Q60.70 51.34 60.56 51.55Q60.41 51.76 60.41 52.01L60.41 52.01Q60.41 52.49 60.70 52.70Q60.99 52.91 61.46 52.91L61.46 52.91Q62.03 52.91 62.44 52.71Q62.86 52.50 63.26 52.08L63.26 52.08ZM59.34 48.04L59.01 47.45Q60.34 46.23 62.21 46.23L62.21 46.23Q62.88 46.23 63.41 46.45Q63.95 46.67 64.31 47.07Q64.68 47.46 64.87 48.01Q65.06 48.56 65.06 49.21L65.06 49.21L65.06 54.07L64.22 54.07Q63.96 54.07 63.82 53.99Q63.68 53.91 63.59 53.67L63.59 53.67L63.43 53.12Q63.14 53.38 62.86 53.58Q62.58 53.78 62.28 53.91Q61.98 54.05 61.64 54.12Q61.30 54.19 60.89 54.19L60.89 54.19Q60.40 54.19 59.99 54.06Q59.57 53.93 59.27 53.66Q58.97 53.40 58.81 53.01Q58.64 52.62 58.64 52.10L58.64 52.10Q58.64 51.81 58.74 51.52Q58.84 51.23 59.06 50.97Q59.28 50.71 59.63 50.48Q59.99 50.24 60.50 50.07Q61.01 49.90 61.70 49.79Q62.38 49.68 63.26 49.66L63.26 49.66L63.26 49.21Q63.26 48.44 62.93 48.06Q62.60 47.69 61.97 47.69L61.97 47.69Q61.52 47.69 61.23 47.80Q60.93 47.90 60.71 48.04Q60.48 48.17 60.30 48.27Q60.11 48.38 59.89 48.38L59.89 48.38Q59.69 48.38 59.56 48.27Q59.42 48.17 59.34 48.04L59.34 48.04ZM69.62 50.03L69.62 50.03Q69.96 50.03 70.22 49.94Q70.47 49.85 70.64 49.68Q70.81 49.52 70.89 49.28Q70.98 49.05 70.98 48.77L70.98 48.77Q70.98 48.20 70.64 47.87Q70.30 47.54 69.62 47.54L69.62 47.54Q68.93 47.54 68.59 47.87Q68.25 48.20 68.25 48.77L68.25 48.77Q68.25 49.04 68.34 49.28Q68.42 49.51 68.59 49.68Q68.76 49.85 69.02 49.94Q69.28 50.03 69.62 50.03ZM71.71 54.41L71.71 54.41Q71.71 54.19 71.57 54.05Q71.44 53.90 71.21 53.83Q70.97 53.75 70.66 53.71Q70.35 53.67 70.00 53.65Q69.65 53.63 69.28 53.62Q68.91 53.60 68.56 53.56L68.56 53.56Q68.25 53.73 68.06 53.96Q67.87 54.20 67.87 54.50L67.87 54.50Q67.87 54.71 67.97 54.88Q68.07 55.06 68.29 55.19Q68.51 55.31 68.87 55.38Q69.22 55.46 69.73 55.46L69.73 55.46Q70.25 55.46 70.62 55.38Q71.00 55.30 71.24 55.16Q71.48 55.02 71.60 54.83Q71.71 54.64 71.71 54.41ZM71.34 46.64L73.55 46.64L73.55 47.33Q73.55 47.66 73.16 47.73L73.16 47.73L72.47 47.86Q72.62 48.26 72.62 48.73L72.62 48.73Q72.62 49.30 72.39 49.76Q72.17 50.22 71.76 50.54Q71.36 50.87 70.81 51.04Q70.25 51.22 69.62 51.22L69.62 51.22Q69.39 51.22 69.18 51.20Q68.97 51.17 68.77 51.14L68.77 51.14Q68.41 51.35 68.41 51.62L68.41 51.62Q68.41 51.86 68.62 51.97Q68.84 52.07 69.19 52.12Q69.54 52.16 69.99 52.18Q70.44 52.19 70.91 52.22Q71.39 52.26 71.84 52.36Q72.29 52.45 72.64 52.65Q72.99 52.85 73.20 53.20Q73.42 53.55 73.42 54.10L73.42 54.10Q73.42 54.61 73.17 55.09Q72.92 55.57 72.44 55.94Q71.96 56.32 71.27 56.55Q70.58 56.78 69.69 56.78L69.69 56.78Q68.82 56.78 68.18 56.61Q67.53 56.44 67.10 56.16Q66.68 55.88 66.47 55.51Q66.26 55.14 66.26 54.74L66.26 54.74Q66.26 54.20 66.58 53.84Q66.91 53.48 67.48 53.26L67.48 53.26Q67.17 53.10 66.99 52.84Q66.81 52.58 66.81 52.15L66.81 52.15Q66.81 51.98 66.88 51.79Q66.94 51.61 67.06 51.43Q67.19 51.25 67.37 51.09Q67.56 50.93 67.82 50.80L67.82 50.80Q67.23 50.48 66.90 49.96Q66.56 49.43 66.56 48.73L66.56 48.73Q66.56 48.16 66.79 47.70Q67.02 47.24 67.43 46.91Q67.84 46.58 68.40 46.41Q68.96 46.24 69.62 46.24L69.62 46.24Q70.11 46.24 70.55 46.34Q70.98 46.44 71.34 46.64L71.34 46.64ZM76.19 49.34L79.68 49.34Q79.68 48.98 79.58 48.66Q79.48 48.34 79.28 48.10Q79.07 47.86 78.76 47.72Q78.45 47.58 78.04 47.58L78.04 47.58Q77.24 47.58 76.78 48.04Q76.31 48.50 76.19 49.34L76.19 49.34ZM80.91 50.45L76.15 50.45Q76.19 51.05 76.36 51.48Q76.52 51.91 76.79 52.19Q77.06 52.47 77.44 52.61Q77.81 52.75 78.26 52.75L78.26 52.75Q78.71 52.75 79.03 52.64Q79.36 52.54 79.60 52.41Q79.85 52.28 80.03 52.18Q80.21 52.07 80.39 52.07L80.39 52.07Q80.62 52.07 80.73 52.25L80.73 52.25L81.26 52.92Q80.96 53.28 80.57 53.52Q80.19 53.77 79.78 53.91Q79.36 54.06 78.93 54.12Q78.50 54.18 78.09 54.18L78.09 54.18Q77.29 54.18 76.60 53.91Q75.91 53.65 75.40 53.13Q74.89 52.61 74.60 51.84Q74.30 51.07 74.30 50.06L74.30 50.06Q74.30 49.27 74.56 48.58Q74.81 47.88 75.29 47.37Q75.77 46.85 76.45 46.55Q77.14 46.25 78.00 46.25L78.00 46.25Q78.73 46.25 79.34 46.49Q79.96 46.72 80.40 47.16Q80.84 47.61 81.09 48.26Q81.35 48.91 81.35 49.74L81.35 49.74Q81.35 50.16 81.26 50.31Q81.17 50.45 80.91 50.45L80.91 50.45Z" fill="#999999"/></svg>