<svg xmlns="http://www.w3.org/2000/svg" xmlns:xlink="http://www.w3.org/1999/xlink" width="150" height="150" viewBox="0 0 150 150"><rect width="100%" height="100%" fill="#DDDDDD"/><path d="M38.23 64.61L40.95 64.61L40.95 81.24L39.37 81.24Q39.00 81.24 38.75 81.12Q38.50 81.00 38.27 80.71L38.27 80.71L29.59 69.62Q29.66 70.38 29.66 71.03L29.66 71.03L29.66 81.24L26.94 81.24L26.94 64.61L28.56 64.61Q28.75 64.61 28.90 64.63Q29.04 64.64 29.15 64.70Q29.26 64.75 29.36 64.85Q29.47 64.94 29.59 65.10L29.59 65.10L38.31 76.24Q38.27 75.83 38.25 75.44Q38.23 75.05 38.23 74.72L38.23 74.72L38.23 64.61ZM49.43 69.26L49.43 69.26Q50.74 69.26 51.82 69.68Q52.89 70.11 53.66 70.89Q54.42 71.67 54.83 72.80Q55.25 73.92 55.25 75.32L55.25 75.32Q55.25 76.72 54.83 77.85Q54.42 78.97 53.66 79.77Q52.89 80.56 51.82 80.99Q50.74 81.41 49.43 81.41L49.43 81.41Q48.11 81.41 47.03 80.99Q45.95 80.56 45.18 79.77Q44.42 78.97 44.00 77.85Q43.58 76.72 43.58 75.32L43.58 75.32Q43.58 73.92 44.00 72.80Q44.42 71.67 45.18 70.89Q45.95 70.11 47.03 69.68Q48.11 69.26 49.43 69.26ZM49.43 79.23L49.43 79.23Q50.90 79.23 51.61 78.24Q52.32 77.25 52.32 75.34L52.32 75.34Q52.32 73.43 51.61 72.43Q50.90 71.43 49.43 71.43L49.43 71.43Q47.93 71.43 47.22 72.44Q46.50 73.44 46.50 75.34L46.50 75.34Q46.50 77.24 47.22 78.23Q47.93 79.23 49.43 79.23ZM66.56 64.61L66.56 81.24L63.46 81.24L63.46 64.61L66.56 64.61ZM72.67 81.24L69.83 81.24L69.83 69.44L71.57 69.44Q72.12 69.44 72.29 69.96L72.29 69.96L72.48 70.83Q72.79 70.49 73.13 70.20Q73.46 69.91 73.85 69.70Q74.24 69.50 74.68 69.38Q75.12 69.26 75.65 69.26L75.65 69.26Q76.77 69.26 77.48 69.86Q78.20 70.46 78.56 71.46L78.56 71.46Q78.84 70.88 79.25 70.46Q79.66 70.04 80.16 69.77Q80.65 69.51 81.21 69.38Q81.77 69.26 82.33 69.26L82.33 69.26Q83.31 69.26 84.07 69.55Q84.83 69.85 85.34 70.43Q85.86 71.00 86.13 71.83Q86.40 72.66 86.40 73.73L86.40 73.73L86.40 81.24L83.56 81.24L83.56 73.73Q83.56 72.60 83.07 72.03Q82.57 71.46 81.62 71.46L81.62 71.46Q81.18 71.46 80.81 71.61Q80.43 71.76 80.15 72.04Q79.87 72.33 79.71 72.75Q79.55 73.18 79.55 73.73L79.55 73.73L79.55 81.24L76.70 81.24L76.70 73.73Q76.70 72.54 76.22 72.00Q75.74 71.46 74.82 71.46L74.82 71.46Q74.20 71.46 73.67 71.77Q73.13 72.07 72.67 72.60L72.67 72.60L72.67 81.24ZM95.33 78.19L95.33 76.20Q94.10 76.26 93.26 76.41Q92.42 76.57 91.91 76.81Q91.40 77.05 91.19 77.37Q90.97 77.70 90.97 78.08L90.97 78.08Q90.97 78.82 91.41 79.15Q91.85 79.47 92.57 79.47L92.57 79.47Q93.44 79.47 94.08 79.15Q94.72 78.84 95.33 78.19L95.33 78.19ZM89.32 71.99L88.82 71.08Q90.85 69.22 93.72 69.22L93.72 69.22Q94.75 69.22 95.57 69.56Q96.38 69.90 96.95 70.50Q97.51 71.11 97.80 71.95Q98.10 72.79 98.10 73.79L98.10 73.79L98.10 81.24L96.81 81.24Q96.41 81.24 96.19 81.12Q95.97 81.00 95.84 80.63L95.84 80.63L95.59 79.78Q95.14 80.18 94.72 80.49Q94.29 80.79 93.83 81.00Q93.37 81.20 92.85 81.31Q92.32 81.42 91.69 81.42L91.69 81.42Q90.94 81.42 90.31 81.22Q89.68 81.02 89.22 80.62Q88.76 80.22 88.51 79.62Q88.25 79.02 88.25 78.23L88.25 78.23Q88.25 77.78 88.40 77.33Q88.55 76.89 88.89 76.49Q89.23 76.09 89.77 75.73Q90.31 75.37 91.10 75.11Q91.89 74.84 92.93 74.68Q93.98 74.51 95.33 74.48L95.33 74.48L95.33 73.79Q95.33 72.60 94.82 72.03Q94.31 71.46 93.36 71.46L93.36 71.46Q92.67 71.46 92.22 71.62Q91.76 71.79 91.42 71.99Q91.07 72.19 90.79 72.35Q90.51 72.51 90.16 72.51L90.16 72.51Q89.86 72.51 89.66 72.36Q89.45 72.20 89.32 71.99L89.32 71.99ZM105.08 75.05L105.08 75.05Q105.61 75.05 106.00 74.91Q106.39 74.76 106.65 74.51Q106.91 74.26 107.04 73.90Q107.17 73.55 107.17 73.12L107.17 73.12Q107.17 72.25 106.65 71.73Q106.12 71.22 105.08 71.22L105.08 71.22Q104.03 71.22 103.51 71.73Q102.99 72.25 102.99 73.12L102.99 73.12Q102.99 73.53 103.12 73.89Q103.25 74.25 103.51 74.51Q103.77 74.76 104.16 74.91Q104.56 75.05 105.08 75.05ZM108.29 81.77L108.29 81.77Q108.29 81.42 108.08 81.20Q107.87 80.99 107.52 80.87Q107.16 80.74 106.68 80.69Q106.21 80.63 105.67 80.60Q105.14 80.57 104.57 80.55Q104.00 80.53 103.46 80.46L103.46 80.46Q102.99 80.72 102.69 81.08Q102.40 81.43 102.40 81.91L102.40 81.91Q102.40 82.22 102.55 82.49Q102.71 82.76 103.05 82.95Q103.39 83.15 103.93 83.26Q104.47 83.37 105.25 83.37L105.25 83.37Q106.04 83.37 106.62 83.25Q107.19 83.12 107.57 82.91Q107.94 82.70 108.11 82.41Q108.29 82.11 108.29 81.77ZM107.72 69.84L111.12 69.84L111.12 70.90Q111.12 71.41 110.51 71.52L110.51 71.52L109.45 71.72Q109.69 72.33 109.69 73.05L109.69 73.05Q109.69 73.92 109.34 74.63Q108.99 75.34 108.37 75.83Q107.75 76.33 106.90 76.60Q106.06 76.87 105.08 76.87L105.08 76.87Q104.73 76.87 104.41 76.83Q104.09 76.80 103.78 76.74L103.78 76.74Q103.23 77.08 103.23 77.49L103.23 77.49Q103.23 77.85 103.55 78.01Q103.88 78.18 104.42 78.25Q104.96 78.32 105.65 78.34Q106.34 78.35 107.07 78.41Q107.79 78.47 108.48 78.61Q109.17 78.75 109.71 79.07Q110.25 79.38 110.58 79.91Q110.91 80.45 110.91 81.28L110.91 81.28Q110.91 82.07 110.52 82.80Q110.14 83.54 109.41 84.11Q108.68 84.69 107.61 85.04Q106.55 85.39 105.19 85.39L105.19 85.39Q103.86 85.39 102.87 85.13Q101.88 84.87 101.23 84.44Q100.57 84.01 100.25 83.45Q99.93 82.88 99.93 82.27L99.93 82.27Q99.93 81.45 100.43 80.89Q100.93 80.33 101.80 80.00L101.80 80.00Q101.33 79.76 101.05 79.35Q100.78 78.95 100.78 78.29L100.78 78.29Q100.78 78.03 100.88 77.75Q100.97 77.47 101.16 77.19Q101.35 76.91 101.64 76.67Q101.93 76.42 102.32 76.22L102.32 76.22Q101.42 75.74 100.91 74.94Q100.40 74.13 100.40 73.05L100.40 73.05Q100.40 72.18 100.75 71.47Q101.10 70.76 101.73 70.26Q102.35 69.76 103.21 69.50Q104.07 69.23 105.08 69.23L105.08 69.23Q105.84 69.23 106.50 69.39Q107.17 69.54 107.72 69.84L107.72 69.84ZM115.15 73.98L120.51 73.98Q120.51 73.43 120.36 72.94Q120.20 72.45 119.89 72.08Q119.58 71.72 119.10 71.50Q118.63 71.29 117.99 71.29L117.99 71.29Q116.76 71.29 116.06 71.99Q115.35 72.69 115.15 73.98L115.15 73.98ZM122.40 75.70L115.09 75.70Q115.16 76.60 115.42 77.27Q115.67 77.93 116.08 78.36Q116.50 78.79 117.07 79.00Q117.64 79.21 118.33 79.21L118.33 79.21Q119.02 79.21 119.52 79.05Q120.02 78.89 120.39 78.70Q120.76 78.50 121.05 78.34Q121.33 78.18 121.59 78.18L121.59 78.18Q121.95 78.18 122.12 78.44L122.12 78.44L122.94 79.48Q122.47 80.03 121.88 80.41Q121.29 80.78 120.66 81.00Q120.02 81.23 119.36 81.32Q118.69 81.41 118.07 81.41L118.07 81.41Q116.84 81.41 115.78 81.00Q114.73 80.59 113.94 79.80Q113.16 79.00 112.71 77.82Q112.27 76.64 112.27 75.09L112.27 75.09Q112.27 73.88 112.66 72.82Q113.05 71.75 113.78 70.96Q114.51 70.18 115.56 69.72Q116.61 69.26 117.94 69.26L117.94 69.26Q119.05 69.26 119.99 69.61Q120.94 69.97 121.62 70.65Q122.29 71.34 122.68 72.33Q123.06 73.33 123.06 74.60L123.06 74.60Q123.06 75.25 122.93 75.47Q122.79 75.70 122.40 75.70L122.40 75.70Z" fill="#999999"/></svg>